<?xml version="1.0" encoding="utf-8"?>
<svg version="1.1"
	id="svg3861"
	inkscape:version="0.48.4 r9939"
	sodipodi:docname="fjord.svg"
	xmlns:cc="http://creativecommons.org/ns#"
	xmlns:dc="http://purl.org/dc/elements/1.1/"
	xmlns:inkscape="http://www.inkscape.org/namespaces/inkscape"
	xmlns:rdf="http://www.w3.org/1999/02/22-rdf-syntax-ns#"
	xmlns:sodipodi="http://sodipodi.sourceforge.net/DTD/sodipodi-0.dtd"
	xmlns:svg="http://www.w3.org/2000/svg"
	xmlns="http://www.w3.org/2000/svg"
	xmlns:xlink="http://www.w3.org/1999/xlink"
	x="0px"
	y="0px"
	viewBox="0 0 777.8 228.6"
	style="enable-background:new 0 0 777.8 228.6;"
	xml:space="preserve">
	<style type="text/css">
		.st0{fill:#E31837;}
	</style>

	<sodipodi:namedview  bordercolor="#666666" borderopacity="1.0" fit-margin-bottom="0" fit-margin-left="0" fit-margin-right="0" fit-margin-top="0" id="base" inkscape:current-layer="layer1" inkscape:cx="358.36426" inkscape:cy="28.467988" inkscape:document-units="px" inkscape:guide-bbox="true" inkscape:pageopacity="0.0" inkscape:pageshadow="2" inkscape:window-height="975" inkscape:window-maximized="1" inkscape:window-width="1680" inkscape:window-x="-9" inkscape:window-y="-9" inkscape:zoom="0.7" pagecolor="#ffffff" showgrid="false" showguides="true"></sodipodi:namedview>
	<g id="layer1" transform="translate(107.14286,-229.37293)" inkscape:groupmode="layer" inkscape:label="Layer 1">
		<path id="path3916" inkscape:connector-curvature="0" sodipodi:nodetypes="csccccccccccccccc" class="st0" d="M555.6,458
		c-38.2,0.3-51.2-5.2-67.7-18c-16.5-12.8-24.2-33.3-25.6-59.4h52.2c2.3,26.8,17.2,37.3,42.2,37.1c19.4-0.1,36.8-4.7,34.8-24.2
		c-1.4-20.3-32.2-17-72.2-33.9c-28-8.3-54.9-30.6-52.6-65.4c3.5-47.2,46-64.7,85.8-64.9c47.6,0,83.9,23.3,84.5,72l-51.4-0.7
		c-0.2-28.7-32-28.8-36-28.9c-20.7-0.7-30.9,10.5-30.4,19.5c0.2,17,21.1,21.6,41.6,28.2c38.4,12.2,83.5,19.5,83.8,70.9
		c-0.4,20.5-6.1,35.7-23.2,49.4C608.2,450.1,585.7,457.8,555.6,458L555.6,458z"/>
		<path id="path3952" inkscape:connector-curvature="0" class="st0" d="M-107.1,238.7h55.7v215.9h-55.7V238.7z"/>
		<path id="path3954" inkscape:connector-curvature="0" class="st0" d="M-27.9,238.7h166.4v43.9H26.3v40.5h112.3v42.9H26.3v44.3
		h112.3v44.4H-27.9L-27.9,238.7z"/>
		<path id="path3956" inkscape:connector-curvature="0" sodipodi:nodetypes="ccccccc" class="st0" d="M160,238.7h55v169.5h101.4v46.4
		H160L160,238.7z"/>
		<path id="path3958" inkscape:connector-curvature="0" class="st0" d="M276,238.7h179.3v43.9h-62.1v172h-54.8v-172H276L276,238.7z"
		/>
		<path id="path4576" inkscape:connector-curvature="0" class="st0" d="M631.7,263.8v-21.4h-7.3V238h19.4v4.4h-7.2v21.4H631.7z"/>
		<path id="path4578" inkscape:connector-curvature="0" class="st0" d="M647,263.8V238h7.4l4.4,17.6l4.4-17.6h7.4v25.8h-4.6v-20.3l-4.9,20.3h-4.8
		l-4.8-20.3v20.3H647z"/>
	</g>
</svg>
