<svg data-v-438291e5="" width="36" height="36" viewBox="0 0 48 48" fill="none" xmlns="http://www.w3.org/2000/svg"
    class="ui-icon ">
    <g clip-path="url(#clip0_883_569)">
        <path d="M24 0c20 0 24 4 24 24s-4 24-24 24S0 44 0 24 4 0 24 0Z" fill="url(#paint0_linear_883_569)"></path>
        <path
            d="M11.792 23.799c6.996-3.048 11.662-5.058 13.996-6.029 6.665-2.772 8.05-3.254 8.953-3.27.198-.003.642.046.93.28.242.196.31.463.341.65.032.186.072.612.04.944-.36 3.795-1.924 13.005-2.719 17.255-.336 1.798-.998 2.401-1.64 2.46-1.394.129-2.452-.92-3.802-1.806-2.112-1.384-3.305-2.246-5.356-3.597-2.37-1.562-.833-2.42.517-3.823.354-.367 6.494-5.952 6.613-6.459.015-.063.029-.3-.111-.424-.14-.125-.348-.082-.497-.048-.212.048-3.587 2.278-10.124 6.69-.958.659-1.825.979-2.602.962-.857-.018-2.506-.484-3.731-.883-1.503-.488-2.698-.747-2.594-1.576.054-.432.65-.874 1.786-1.326Z"
            fill="#fff"></path>
    </g>
    <defs>
        <linearGradient id="paint0_linear_883_569" x1="24" y1="0" x2="24" y2="47.644" gradientUnits="userSpaceOnUse">
            <stop stop-color="#2AABEE"></stop>
            <stop offset="1" stop-color="#229ED9"></stop>
        </linearGradient>
        <clipPath id="clip0_883_569">
            <path fill="#fff" d="M0 0h48v48H0z"></path>
        </clipPath>
    </defs>
</svg>